<?xml version="1.0" encoding="UTF-8"?>
<!DOCTYPE svg PUBLIC "-//W3C//DTD SVG 1.1//EN" "http://www.w3.org/Graphics/SVG/1.1/DTD/svg11.dtd">
<!-- Creator: CorelDRAW 2020 (64-Bit) -->
<svg xmlns="http://www.w3.org/2000/svg" xml:space="preserve" width="12.7867mm" height="12.7867mm" version="1.1" style="shape-rendering:geometricPrecision; text-rendering:geometricPrecision; image-rendering:optimizeQuality; fill-rule:evenodd; clip-rule:evenodd"
viewBox="0 0 408.92 408.92"
 xmlns:xlink="http://www.w3.org/1999/xlink"
 xmlns:xodm="http://www.corel.com/coreldraw/odm/2003">
 <defs>
  <style type="text/css">
   <![CDATA[
    .fil1 {fill:#2B2A29}
    .fil0 {fill:#2B2A29;fill-rule:nonzero}
   ]]>
  </style>
 </defs>
 <g id="Слой_x0020_1">
  <metadata id="CorelCorpID_0Corel-Layer"/>
  <g id="_2964501546736">
   <path class="fil0" d="M6.49 0l402.43 0 0 408.92 -408.92 0 0 -408.92 6.49 0zm389.45 12.98l-382.95 0 0 382.95 382.95 0 0 -382.95z"/>
   <g>
    <path class="fil1" d="M46.19 157.4l0.07 1.83c10.51,-0.01 112.14,0.43 112.86,-0.29 0.73,-0.73 0.28,-102.35 0.28,-112.8l-113.27 -0.14 0.05 111.4zm22.69 -20.87l67.39 0 0.45 0 0 -67.84 -68.05 0 0.21 67.84z"/>
    <path class="fil1" d="M363.16 45.97l-113.25 0.03 0 113.22 113.27 0 -0.03 -113.25zm-90.56 90.56l67.65 0 0.19 -67.84 -67.89 0 0.05 67.84z"/>
    <path class="fil1" d="M46.16 362.98l113.25 -0.03 0 -113.22 0.59 0 -114.27 0 0.46 0 -0.03 113.25zm22.72 -22.72l67.79 0 0.05 -67.84 -67.65 0 -0.19 67.84z"/>
    <path class="fil1" d="M318.13 204.5l-0.38 0.03 -0.08 45.41c-2.91,-0.98 -59.47,-0.2 -67.75,-0.21 0,4.25 -0.63,19.81 0.33,22.69l44.94 0 0.01 45.18 45.24 -0.02 0.01 22.68 -22.67 0 -0.01 22.69 22.69 -0.14 -0.04 -22.53 22.69 0 0.06 -22.69 -22.72 0 0 -22.58 22.32 -0.03 0.35 0 0.05 -22.57 -22.72 -0.01 0.04 -45.33 22.63 0.01 0.05 -45.22 -22.74 0.23 0 22.38 -22.32 0.03zm-0.35 90.46l22.66 0.04 0 -22.59 -22.68 0.01 0.02 22.54z"/>
    <path class="fil1" d="M204.69 362.6l0.03 0.38 90.41 0 0.03 -0.38 0.04 -45 -22.65 0.04 0.03 22.62 -67.93 0 0.04 -22.67 22.57 0.02 -0.01 -22.59 -22.59 -0.01 -0.01 -22.6 -22.6 -0.01 0 51.17c0.01,3.72 -0.45,13.75 0.18,16.71l22.43 0 0.03 22.32z"/>
    <polygon class="fil1" points="204.65,181.9 204.65,181.19 204.86,159.22 227.26,159.22 227.27,91.35 204.67,91.34 204.66,68.69 227.24,68.69 227.4,46 182.06,45.95 182.13,113.94 204.66,113.94 204.66,136.53 182.06,136.48 182.06,181.89 "/>
    <polygon class="fil1" points="91.53,204.46 114.13,204.47 114.13,227.08 181.92,227.08 182.07,249.75 204.66,249.84 204.66,204.47 136.73,204.4 136.73,181.88 91.53,181.87 "/>
    <path class="fil1" d="M249.94 204.67l22.65 -0.2 0.01 22.6 22.59 -0 0 -44.73c-0.72,-0.49 -1.98,-0.45 -2.79,-0.45l-42.46 0.01 0 22.77z"/>
    <path class="fil1" d="M272.55 317.64l0.08 -22.58 -0.37 -0.03 -22.03 -0.03c-0.91,3.11 -0.3,18.2 -0.3,22.59l22.64 0.04z"/>
    <path class="fil1" d="M46.53 204.44l22.02 0.03c0.85,-2.99 0.29,-18.27 0.29,-22.57l-22.67 0.01c0.2,3.92 -0.6,20.56 0.36,22.53z"/>
    <polygon class="fil1" points="227.24,249.82 249.93,249.74 249.93,227.21 227.24,227.05 "/>
    <polygon class="fil1" points="227.25,295.01 249.93,295 249.93,272.41 227.2,272.41 "/>
    <polygon class="fil1" points="204.65,272.41 227.2,272.41 227.26,249.73 204.66,249.73 "/>
    <path class="fil1" d="M317.32 113.94c0.93,-1.35 0.44,-21.19 0.44,-22.57 -1.48,0 -21.22,-0.48 -22.57,0.44l0 22.13 22.13 0z"/>
    <polygon class="fil1" points="114.13,317.55 114.13,295 91.56,294.83 91.56,317.57 "/>
    <path class="fil1" d="M91.77 227.04c-0.89,-4.25 -0.19,-17.33 -0.24,-22.58l-22.36 0.01c-0.85,3 -0.29,18.26 -0.29,22.57l22.89 -0z"/>
    <polygon class="fil1" points="113.73,113.94 114.13,113.94 114.13,113.54 114.13,91.34 91.54,91.34 91.52,113.94 "/>
    <polygon class="fil1" points="204.66,204.47 227.21,204.47 227.23,181.91 204.65,181.9 "/>
   </g>
  </g>
 </g>
</svg>
